:SAMPLES-PER-SECOND 30
:FULLY-SPECIFIED
:DEGREES
131
root  -17.1765 38.9184 -9.12646 -59.5721 -85.284 52.2114
RightUpLeg  -20.3358 9.67765 -10.3925
RightLeg  48.7373 3.1155 3.47362
RightFoot  -0.471831 -0.742394 7.7642
RightToes  -4.65663e-010 0 -3.6325e-017
Spine  9.47998 -1.62193 -10.1203
Spine1  4.42029 -2.6051 -1.50226
HEad  -17.1838 4.72134 -2.84137
LeftShoulder1  -0.512597 4.78137 -33.969
LeftArm  15.3614 -6.2374 -42.9315
LeftForeArm  18.9351 -18.6214 -6.2497
LeftHand  -0.0502812 8.65241 -0.119605
RightShoulder  -0.832194 -5.8468 28.9118
RightArm  12.8471 -9.706 41.7055
RightForeArm  17.2423 11.4852 5.61546
RightHand  0.0441605 1.56291 0.626846
LeftUpLeg  -0.265523 4.54532 -11.09
LeftLeg  16.6211 13.5714 1.9134
LeftFoot  -11.0369 0.0405082 9.82868
LeftToes  8.74931e-010 -1.05764e-010 1.2659e-011
132
root  -17.9694 38.947 -8.99736 -47.8965 -84.5823 40.7024
RightUpLeg  -21.2401 11.3173 -10.5008
RightLeg  40.2787 3.4927 2.86199
RightFoot  -0.763482 -0.666689 7.14049
RightToes  -4.65663e-010 0 -3.6325e-017
Spine  9.56363 -1.82656 -10.1996
Spine1  4.07097 -2.86967 -0.581687
HEad  -16.9299 3.71089 -2.33932
LeftShoulder1  -0.461729 4.66515 -33.5822
LeftArm  19.1142 -8.57925 -44.1
LeftForeArm  15.9552 -20.8905 -5.03651
LeftHand  -0.0314226 8.61089 0.606818
RightShoulder  -0.817646 -5.7976 29.0226
RightArm  14.1891 -8.46497 42.5916
RightForeArm  14.2102 14.1577 5.28808
RightHand  -0.000723182 2.83807 -0.250206
LeftUpLeg  1.30034 4.66123 -11.0148
LeftLeg  15.9606 12.3312 1.5519
LeftFoot  -11.8849 0.118752 9.93199
LeftToes  8.74931e-010 -1.05764e-010 1.2659e-011
133
root  -18.7832 38.9757 -8.83267 -41.8702 -84.0907 35.0554
RightUpLeg  -21.7216 11.5574 -10.3499
RightLeg  30.8416 5.33287 3.21143
RightFoot  -0.623978 -0.63734 6.74093
RightToes  -4.65663e-010 0 -3.6325e-017
Spine  8.96199 -1.92057 -9.16912
Spine1  4.33741 -2.63079 -0.836772
HEad  -17.4191 2.5023 -2.42887
LeftShoulder1  -0.345057 4.383 -33.1293
LeftArm  20.1659 -10.6225 -45.1655
LeftForeArm  14.9131 -22.7385 -4.34762
LeftHand  0.0081146 7.77819 2.24661
RightShoulder  -0.895247 -6.0009 29.2666
RightArm  16.3286 -7.25005 43.5724
RightForeArm  12.2991 17.4568 4.74136
RightHand  0.0423234 3.41481 0.318111
LeftUpLeg  2.89628 4.74107 -10.9673
LeftLeg  14.8175 11.5934 1.15424
LeftFoot  -12.6973 0.192471 9.77083
LeftToes  8.74931e-010 -1.05764e-010 1.2659e-011
134
root  -19.6382 38.9541 -8.65159 -43.9808 -83.8235 37.5673
RightUpLeg  -21.7757 10.4368 -9.84551
RightLeg  21.3806 7.61291 3.08018
RightFoot  -0.979307 -0.674171 7.34757
RightToes  -4.65663e-010 0 -3.6325e-017
Spine  8.71924 -1.87671 -9.01263
Spine1  3.90658 -2.47235 -0.564914
HEad  -17.2217 2.87585 -1.73344
LeftShoulder1  -0.379958 4.47577 -32.9362
LeftArm  19.2043 -11.6156 -45.7267
LeftForeArm  15.6824 -24.4052 -4.3661
LeftHand  0.0031352 7.37339 2.35747
RightShoulder  -0.833059 -5.84335 28.9976
RightArm  18.7683 -6.11135 44.9137
RightForeArm  11.4932 20.4881 4.3723
RightHand  0.044591 3.1054 0.381085
LeftUpLeg  4.58624 4.63039 -11.5024
LeftLeg  13.5224 11.6196 0.918244
LeftFoot  -13.4914 0.258438 9.43341
LeftToes  8.74931e-010 -1.05764e-010 1.2659e-011
135
root  -20.4946 38.9298 -8.44426 -44.0039 -83.5011 38.3001
RightUpLeg  -21.5138 5.13562 -7.73857
RightLeg  11.9326 11.452 2.11435
RightFoot  -1.09734 -0.809184 8.93384
RightToes  -4.65663e-010 0 -3.6325e-017
Spine  8.24785 -1.87847 -8.47158
Spine1  3.48942 -2.32651 -0.363231
HEad  -17.8165 2.64159 -2.29119
LeftShoulder1  -0.310826 4.30612 -32.6158
LeftArm  17.4613 -11.7397 -46.1758
LeftForeArm  17.2022 -26.0223 -4.66787
LeftHand  -0.000387265 7.69839 1.94801
RightShoulder  -0.810605 -5.79371 28.7819
RightArm  20.4245 -5.14692 45.965
RightForeArm  10.3207 23.2794 4.47247
RightHand  0.0204529 3.74367 -0.0011053
LeftUpLeg  5.98085 4.33952 -12.0525
LeftLeg  12.1623 11.6091 0.710453
LeftFoot  -14.2526 0.31411 8.94967
LeftToes  8.74931e-010 -1.05764e-010 1.2659e-011
136
root  -21.3952 38.8512 -8.25245 -43.204 -83.1444 37.9574
RightUpLeg  -20.9352 -3.4591 -3.72751
RightLeg  4.17582 14.3537 0.103271
RightFoot  -1.60944 -0.865838 10.0122
RightToes  -4.65663e-010 0 -3.6325e-017
Spine  7.87811 -1.82884 -7.56159
Spine1  3.45677 -2.09566 -0.633975
HEad  -18.8532 2.21123 -3.17032
LeftShoulder1  -0.268044 4.18932 -32.9702
LeftArm  17.1757 -12.3013 -45.8333
LeftForeArm  17.4858 -27.3016 -4.9389
LeftHand  -0.00173833 7.53696 1.98682
RightShoulder  -0.853742 -5.91075 28.8718
RightArm  20.3713 -4.24954 46.7979
RightForeArm  11.8462 26.1139 4.97208
RightHand  0.0025969 3.72767 -0.227192
LeftUpLeg  7.44083 4.30643 -12.3956
LeftLeg  11.3819 11.3816 0.510171
LeftFoot  -15.1747 0.393687 9.00967
LeftToes  8.74931e-010 -1.05764e-010 1.2659e-011
137
root  -22.3524 38.7336 -8.073 -42.7757 -82.628 37.915
RightUpLeg  -20.9234 -4.89407 -2.8909
RightLeg  0.189005 7.92779 0.395369
RightFoot  -1.99906 -0.804426 9.65279
RightToes  -4.65663e-010 0 -3.6325e-017
Spine  7.82794 -1.87223 -7.27296
Spine1  3.0955 -2.15398 -0.429697
HEad  -19.4301 1.55655 -2.76231
LeftShoulder1  -0.165957 3.9251 -33.2684
LeftArm  16.1159 -11.4198 -45.0509
LeftForeArm  18.8259 -28.7829 -5.20325
LeftHand  -0.0155092 7.25432 1.34617
RightShoulder  -0.82723 -5.83124 28.927
RightArm  20.6469 -3.6323 47.7035
RightForeArm  13.0441 28.1805 5.3845
RightHand  -0.0139672 4.215 -0.439562
LeftUpLeg  9.0262 4.26448 -12.8213
LeftLeg  10.739 11.2012 0.337977
LeftFoot  -16.2596 0.485669 9.01468
LeftToes  8.74931e-010 -1.05764e-010 1.2659e-011
138
root  -23.364 38.5514 -7.863 -42.1895 -81.8592 37.6071
RightUpLeg  -21.3187 -5.14073 -2.78863
RightLeg  0.243149 2.23897 1.02094
RightFoot  -2.02486 -0.683121 8.21122
RightToes  -4.65663e-010 0 -3.6325e-017
Spine  8.33517 -2.06167 -7.21786
Spine1  2.15017 -2.4718 0.0176665
HEad  -19.994 1.01054 -3.18978
LeftShoulder1  -0.124822 3.81623 -33.8087
LeftArm  16.8827 -10.1758 -43.8369
LeftForeArm  17.7458 -29.2156 -5.36408
LeftHand  -0.0198187 6.55398 1.38855
RightShoulder  -0.781297 -5.71283 28.7351
RightArm  21.8704 -3.08398 48.5417
RightForeArm  12.4374 29.2925 5.68086
RightHand  -0.0578178 4.46245 -0.965147
LeftUpLeg  10.6221 4.14612 -13.4173
LeftLeg  10.5961 10.9411 0.287637
LeftFoot  -17.6275 0.598085 8.92819
LeftToes  8.74931e-010 -1.05764e-010 1.2659e-011
139
root  -24.3924 38.3142 -7.61378 -39.5055 -81.1271 35.2619
RightUpLeg  -22.2608 -6.0004 -2.44724
RightLeg  3.60178 -1.21924 1.44821
RightFoot  -1.98566 -0.539593 6.36056
RightToes  -4.65663e-010 0 -3.6325e-017
Spine  8.86718 -2.35326 -5.98436
Spine1  1.33186 -2.63443 -0.488014
HEad  -20.6775 0.749019 -3.56407
LeftShoulder1  -0.0864473 3.71809 -34.1723
LeftArm  18.7471 -9.27961 -43.1141
LeftForeArm  13.6746 -27.7085 -5.24139
LeftHand  -0.000475488 7.17749 2.33237
RightShoulder  -0.830875 -5.82987 29.1107
RightArm  22.0994 -2.43603 48.8359
RightForeArm  12.3836 29.9076 5.83139
RightHand  -0.00978076 4.44441 -0.402632
LeftUpLeg  11.603 4.15323 -13.7548
LeftLeg  11.7136 10.6355 0.552378
LeftFoot  -19.3303 0.74357 8.96603
LeftToes  8.74931e-010 -1.05764e-010 1.2659e-011
140
root  -25.4171 38.0574 -7.33165 -36.6616 -80.6687 32.4127
RightUpLeg  -23.4608 -8.1756 -1.2525
RightLeg  9.28889 -2.08645 0.931027
RightFoot  -1.84357 -0.310167 3.77594
RightToes  -4.65663e-010 0 -3.6325e-017
Spine  10.0077 -2.42597 -4.0821
Spine1  0.96002 -2.61248 -0.742439
HEad  -21.6391 0.508406 -4.57146
LeftShoulder1  -0.115343 3.78315 -35.141
LeftArm  19.7859 -8.50256 -42.557
LeftForeArm  13.0208 -25.6539 -4.8111
LeftHand  -0.00191411 7.36865 2.01861
RightShoulder  -0.849597 -5.87795 29.1814
RightArm  22.4149 -1.38862 49.0224
RightForeArm  10.8173 29.534 5.82913
RightHand  -0.0379542 5.13799 -0.724508
LeftUpLeg  12.3297 6.16626 -13.1806
LeftLeg  14.2077 8.45928 0.894998
LeftFoot  -21.2082 0.86043 8.46749
LeftToes  8.74931e-010 -1.05764e-010 1.2659e-011
